<svg id="Layer_1" data-name="Layer 1" xmlns="http://www.w3.org/2000/svg" viewBox="0 0 600 371"><defs><style>.cls-1{fill:none;}.cls-2{fill:#4285f4;}.cls-3{fill:#c27ba0;}.cls-4{fill:#d9d2e9;}.cls-5{fill:#b7b7b7;}</style></defs><title>chart1</title><path class="cls-1" d="M-132-17.1H468v371H-132Z" transform="translate(132.05 17.1)"/><path class="cls-2" d="M168,1.45A167,167,0,0,1,331.86,200.14l-82-15.87a83.47,83.47,0,0,0-82-99.34Z" transform="translate(132.05 17.1)"/><path class="cls-3" d="M331.86,200.14A167,167,0,0,1,241.24,318.4l-36.65-75a83.45,83.45,0,0,0,45.31-59.13Z" transform="translate(132.05 17.1)"/><path class="cls-4" d="M241.24,318.4a167,167,0,0,1-73.29,17V251.88a83.39,83.39,0,0,0,36.64-8.48Z" transform="translate(132.05 17.1)"/><path class="cls-5" d="M168,335.35a167,167,0,0,1,0-333.9V84.93a83.48,83.48,0,1,0,0,167Z" transform="translate(132.05 17.1)"/></svg>