<svg id="Layer_1" data-name="Layer 1" xmlns="http://www.w3.org/2000/svg" viewBox="0 0 600 371"><defs><style>.cls-1{fill:none;}.cls-2{fill:#4285f4;}.cls-3{fill:#c27ba0;}.cls-4{fill:#d9d2e9;}.cls-5{fill:#b7b7b7;}</style></defs><title>chart</title><path class="cls-1" d="M0,0H600V371H0Z"/><path class="cls-2" d="M300,18.55A167,167,0,0,1,463.91,217.24l-82-15.87A83.47,83.47,0,0,0,300,102Z"/><path class="cls-3" d="M463.91,217.24A167,167,0,0,1,373.29,335.5l-36.65-75A83.45,83.45,0,0,0,382,201.37Z"/><path class="cls-4" d="M373.29,335.5A167,167,0,0,1,300,352.45V269a83.39,83.39,0,0,0,36.64-8.48Z"/><path class="cls-5" d="M300,352.45a167,167,0,0,1,0-333.9V102a83.48,83.48,0,1,0,0,167Z"/></svg>